<svg width="370" height="298" viewBox="0 0 370 298" fill="none" xmlns="http://www.w3.org/2000/svg">
<path d="M335 0.700012V253.1L368.7 288.2V0.700012H335Z" fill="white"/>
<path d="M368.7 288.9C368.5 288.9 368.3 288.8 368.2 288.7L334.6 253.7C334.5 253.6 334.4 253.4 334.4 253.2V0.699997C334.4 0.299997 334.7 0 335.1 0H368.8C369.2 0 369.5 0.299997 369.5 0.699997V288.2C369.5 288.5 369.3 288.7 369.1 288.8C368.8 288.9 368.7 288.9 368.7 288.9ZM335.7 252.9L368 286.5V1.5H335.7V252.9Z" fill="#231F20"/>
<path d="M368.7 288.2H1.29993L34.9999 253.1H335L368.7 288.2Z" fill="white"/>
<path d="M368.7 288.9H1.29998C0.89998 288.9 0.599976 288.6 0.599976 288.2C0.599976 288 0.69998 287.9 0.79998 287.7L34.5 252.7C34.6 252.6 34.8 252.5 35 252.5H335C335.2 252.5 335.4 252.6 335.5 252.7L369.2 287.7C369.5 288 369.5 288.4 369.2 288.7C369 288.8 368.8 288.9 368.7 288.9ZM2.99998 287.5H367L334.7 253.9H35.3L2.99998 287.5Z" fill="#231F20"/>
<path d="M1.29993 0.700012V288.2L34.9999 253.1V0.700012H1.29993Z" fill="white"/>
<path d="M1.29998 288.9C1.19998 288.9 1.09998 288.9 0.999977 288.9C0.699977 288.8 0.599976 288.5 0.599976 288.3V0.699997C0.599976 0.299997 0.89998 0 1.29998 0H35C35.4 0 35.7 0.299997 35.7 0.699997V253.1C35.7 253.3 35.6 253.5 35.5 253.6L1.79998 288.6C1.69998 288.8 1.49998 288.9 1.29998 288.9ZM1.99998 1.4V286.4L34.3 252.9V1.4H1.99998Z" fill="#231F20"/>
<path d="M368.6 288.2H1.29993V297.3H368.6V288.2Z" fill="white"/>
<path d="M368.7 298H1.29998C0.89998 298 0.599976 297.7 0.599976 297.3V288.2C0.599976 287.8 0.89998 287.5 1.29998 287.5H368.6C369 287.5 369.3 287.8 369.3 288.2V297.3C369.4 297.7 369.1 298 368.7 298ZM1.99998 296.6H368V288.9H1.99998V296.6Z" fill="#231F20"/>
<path d="M335 0.700012H35V253.1H335V0.700012Z" fill="white"/>
<path d="M335 253.9H34.9999C34.5999 253.9 34.2999 253.6 34.2999 253.2V0.699997C34.2999 0.299997 34.5999 0 34.9999 0H335C335.4 0 335.7 0.299997 335.7 0.699997V253.1C335.7 253.5 335.4 253.9 335 253.9ZM35.6999 252.5H334.3V1.5H35.6999V252.5Z" fill="#231F20"/>
<path d="M178 246.3H51.8C51.4 246.3 51.1 246 51.1 245.6V13.4C51.1 13 51.4 12.7 51.8 12.7H178C178.4 12.7 178.7 13 178.7 13.4V245.6C178.7 246 178.4 246.3 178 246.3ZM52.6 244.9H177.3V14.1H52.5L52.6 244.9Z" fill="#D1D3D4"/>
<path d="M318.2 246.3H192C191.6 246.3 191.3 246 191.3 245.6V13.4C191.3 13 191.6 12.7 192 12.7H318.2C318.6 12.7 318.9 13 318.9 13.4V245.6C318.9 246 318.6 246.3 318.2 246.3ZM192.7 244.9H317.4V14.1H192.7V244.9Z" fill="#D1D3D4"/>
<path d="M111 64.2C110.8 64.2 110.6 64.1 110.5 64C110.3 63.7 110.3 63.2 110.6 63L142 37C142.3 36.8 142.8 36.8 143 37.1C143.3 37.4 143.2 37.8 142.9 38.1L111.5 64.1C111.3 64.1 111.2 64.2 111 64.2Z" fill="#D1D3D4"/>
<path d="M227.1 81C226.9 81 226.7 80.9 226.6 80.8C226.3 80.5 226.4 80.1 226.7 79.8L266.8 46.2C267.1 45.9 267.5 46 267.8 46.3C268.1 46.6 268 47 267.7 47.3L227.6 80.9C227.5 80.9 227.3 81 227.1 81Z" fill="#D1D3D4"/>
<path d="M126.8 101.9C126.6 101.9 126.4 101.8 126.3 101.7C126 101.4 126.1 101 126.4 100.7L151.2 79.8C151.5 79.6 151.9 79.6 152.2 79.9C152.4 80.2 152.4 80.6 152.1 80.8L127.3 101.7C127.1 101.8 126.9 101.9 126.8 101.9Z" fill="#D1D3D4"/>
<path d="M288 198.6C287.8 198.6 287.6 198.5 287.5 198.4C287.2 198.1 287.3 197.7 287.5 197.4L303.4 183.6C303.7 183.3 304.1 183.4 304.4 183.6C304.7 183.9 304.6 184.3 304.3 184.6L288.4 198.4C288.3 198.5 288.2 198.6 288 198.6Z" fill="#D1D3D4"/>
<path d="M236.5 150.7C236.3 150.7 236.1 150.6 236 150.4C235.7 150.1 235.8 149.7 236.1 149.4L281.2 111.9C281.5 111.6 281.9 111.7 282.2 111.9C282.5 112.2 282.4 112.6 282.2 112.9C282.2 112.9 282.2 112.9 282.1 112.9L237 150.6C236.9 150.7 236.7 150.7 236.5 150.7Z" fill="#D1D3D4"/>
<path d="M35.6 183C32.6001 183.5 11.5001 183.2 12.0001 187.4C12.5001 191.6 22.7001 233.6 25.6001 244.9C28.5001 256.2 36.4 265.9 43.9 270.1C51.4 274.3 74.1 256 79.2 254.8C84.3 253.6 35.6 183 35.6 183Z" fill="#231F20"/>
<path d="M46.5999 271.4C45.4999 271.4 44.4999 271.2 43.4999 270.7C36.4999 266.7 27.9999 257.3 24.8999 245.1C21.8999 233.7 11.6999 191.8 11.2999 187.5C11.2999 186.9 11.3999 186.4 11.7999 186C13.8999 183.6 22.3999 183 30.9999 182.7C32.9999 182.6 34.7999 182.5 35.4999 182.4C35.7999 182.4 35.9999 182.5 36.1999 182.7C43.8999 193.8 82.0999 249.6 80.1999 254.8C80.0999 255.2 79.7999 255.4 79.3999 255.5C77.8999 255.9 74.4999 258 70.4999 260.5C62.8999 265.1 52.8999 271.4 46.5999 271.4ZM35.2999 183.8C34.3999 183.9 32.9999 184 31.0999 184C25.3999 184.2 14.6999 184.7 12.8999 186.9C12.7999 187 12.6999 187.2 12.6999 187.4C13.0999 191.5 23.3999 233.7 26.2999 244.8C29.3999 256.6 37.4999 265.8 44.2999 269.6C49.0999 272.3 61.4999 264.5 69.7999 259.3C73.8999 256.7 77.1999 254.7 78.8999 254.2C79.5999 249.9 52.7999 209 35.2999 183.8Z" fill="#231F20"/>
<path d="M114.7 157.2C114.7 157.2 16.5001 153.2 16.1001 160.2C15.7001 167.2 64.6 270.4 71.8 271.9C79 273.4 79.7 266.6 82.4 267.3C85.1 268 112.8 259.5 121.6 252C130.4 244.5 106.8 187.3 107.9 180.2C109 173.1 122.7 158.2 114.7 157.2Z" fill="white"/>
<path d="M73.7 272.8C73 272.8 72.3 272.7 71.6 272.6C66.8 271.6 48.2 234.4 40.4 218.5C28.1 193.2 15.1 164.2 15.3 160.2C15.4 158.7 15.6 155.1 65.5 155.4C89.8 155.5 114.4 156.5 114.7 156.5H114.8C116 156.5 117 157.2 117.6 158.2C118.9 160.8 116.1 165.5 113.2 170.5C111.1 174.1 108.9 177.8 108.6 180.4C108.3 182.7 111 191.5 114.1 201.7C120.3 222.1 128.1 247.5 122.1 252.6C113.3 260.2 85.3 268.8 82.3 268.1C81.7 268 81.1 268.5 80.2 269.5C78.9 270.8 77.1 272.8 73.7 272.8ZM62.4 156.7C33.3 156.7 16.8 158.2 16.7 160.3C16.5 163.4 27.7 189.3 41.6 217.9C59.2 254.1 69.5 270.8 71.8 271.3C75.8 272.1 77.5 270.2 79 268.5C80 267.4 81 266.3 82.5 266.6C84.9 267.2 112.3 258.9 121 251.4C126.3 246.8 118 219.8 112.6 201.9C109.3 191.1 106.7 182.6 107.1 180C107.5 177.2 109.7 173.4 111.9 169.6C114.4 165.4 117.2 160.5 116.3 158.6C115.9 158 115.3 157.7 114.6 157.7C94.4 157.1 76.8 156.7 62.4 156.7Z" fill="#231F20"/>
<path d="M71.7 259.5C71.4 259.5 71.1 259.3 71 259C63.1 234.3 25.3001 166.2 24.9001 165.6C24.7001 165.3 24.8 164.8 25.2 164.7C25.5 164.5 26 164.6 26.2 164.9C26.2 164.9 26.2 164.9 26.2 165C26.6 165.7 64.5 233.9 72.4 258.7C72.5 259.1 72.3 259.5 72 259.6C71.9 259.5 71.8 259.5 71.7 259.5Z" fill="#D1D3D4"/>
<path d="M293.4 249.6C293.4 249.6 308.4 249.2 310.3 248.2C312.2 247.2 323.5 232.7 326.1 229.2C328.7 225.7 329.4 221.7 331.2 220.9C333 220.1 334.1 218.7 334.8 220.9C335.5 223.1 331.8 239.1 329.3 247.8C326.8 256.5 323.9 268.2 321.8 269.6C319.7 271 314.2 269.2 312.6 267.7C310.9 266.3 309 265.1 307.1 264.1C307.1 264.1 289.2 264.2 288.9 263.8C288.6 263.4 293.4 249.6 293.4 249.6Z" fill="white"/>
<path d="M319.8 270.7C317 270.7 313.5 269.3 312.3 268.1C310.7 266.8 308.9 265.6 307.1 264.7C289 264.8 288.8 264.5 288.5 264.1C288.2 263.7 288 263.4 292.9 249.3C293 249 293.2 248.8 293.5 248.8C299.2 248.6 308.8 248.1 310.1 247.5C311.4 246.9 320.1 236.1 325.7 228.7C326.7 227.3 327.6 225.7 328.3 224.1C329.2 222.2 329.9 220.7 331.1 220.2C331.4 220 331.8 219.8 332.1 219.6C332.9 219.1 333.7 218.7 334.4 219C335 219.3 335.4 219.9 335.6 220.6C336.5 223.3 332.1 241 330.1 248C329.7 249.4 329.3 250.9 328.9 252.5C326.1 262.4 324.2 269 322.4 270.2C321.5 270.6 320.6 270.8 319.8 270.7ZM307.2 263.3C307.3 263.3 307.4 263.3 307.5 263.4C309.5 264.4 311.5 265.7 313.2 267.1C314.6 268.5 319.8 270.1 321.5 269C323 268 325.6 258.8 327.5 252.1C327.9 250.6 328.3 249.1 328.7 247.6C331.6 237.4 334.8 222.9 334.2 221.1C334 220.5 333.8 220.4 333.8 220.4C333.8 220.4 333 220.7 332.7 220.9C332.4 221.1 332 221.3 331.5 221.5C330.8 221.8 330.1 223.2 329.4 224.7C328.7 226.4 327.7 228.1 326.6 229.6C326 230.3 312.9 247.6 310.5 248.8C308.6 249.7 296.7 250.2 293.8 250.3C292.3 254.7 290.1 261.2 289.6 263.2C292.2 263.3 301.4 263.4 307.2 263.3Z" fill="#231F20"/>
<path d="M131.2 270.7C131.2 270.7 207.4 261 212.9 260.6C218.4 260.2 295.7 266 298.4 265.6C301.1 265.2 301.9 247.7 301.9 247.7C301.9 247.7 227 227.5 205.8 228.6C193.5 229.2 153.7 228.6 153.7 228.6L131.2 270.7Z" fill="#231F20"/>
<path d="M131.2 271.4C131 271.4 130.8 271.3 130.6 271.1C130.5 270.9 130.5 270.6 130.6 270.4L153.2 228.2C153.3 228 153.6 227.8 153.8 227.8C154.2 227.8 193.7 228.4 205.8 227.8C226.9 226.8 299 246.1 302.1 247C302.4 247.1 302.6 247.4 302.6 247.7C302.3 253.1 301.4 265.8 298.5 266.3C297.2 266.5 283.3 265.6 260.6 264.1C239.6 262.7 215.8 261.1 212.9 261.3C207.6 261.6 132 271.2 131.2 271.4ZM154.2 229.2L132.5 269.8C143 268.5 207.8 260.2 212.8 259.8C215.7 259.6 238.6 261.1 260.7 262.6C278.6 263.8 297 265 298.3 264.8C299.6 264.6 300.8 256.9 301.2 248.1C294.4 246.3 225.8 228.2 205.9 229.1C194.4 229.7 158.5 229.2 154.2 229.2Z" fill="#231F20"/>
<path d="M236.2 243C236.2 243 243.7 255.1 244.5 257.6C245.3 260.1 245.3 267 247 270.1C248.7 273.2 295.9 272.6 295.7 270.7C295.5 268.8 275.3 260.5 270 256.7C264.7 252.9 250.8 233 250.8 233L236.2 243Z" fill="white"/>
<path d="M271.1 272.9C259.3 272.9 247.4 272.3 246.4 270.4C245.4 268.5 244.9 265.1 244.6 262.1C244.5 260.6 244.2 259.2 243.9 257.8C243.3 255.9 238.2 247.5 235.7 243.4C235.5 243.1 235.6 242.7 235.9 242.5L250.5 232.5C250.8 232.3 251.2 232.3 251.5 232.6C251.6 232.8 265.4 252.5 270.6 256.1C272.9 257.7 278.3 260.3 283.5 262.9C293.5 267.8 296.5 269.4 296.6 270.6C296.6 271.1 296.3 271.5 295.6 271.7C293.4 272.3 282.2 272.9 271.1 272.9ZM237.1 243.2C238.6 245.7 244.4 255.1 245.1 257.3C245.5 258.8 245.7 260.3 245.9 261.9C246.2 264.7 246.6 267.9 247.6 269.7C248.4 270.5 256.1 271.5 271.2 271.5C282.8 271.6 292.2 271 294.6 270.4C293.1 269.2 287.1 266.3 282.6 264.1C277.4 261.6 272 258.9 269.5 257.2C264.6 253.7 252.8 237.2 250.5 233.9L237.1 243.2Z" fill="#231F20"/>
<path d="M100.8 261C102 261.8 107.6 269.9 131.2 270.7C154.8 271.5 193.8 200 193.8 200L234.9 248.2L253.8 236.3C253.8 236.3 228 164.6 216.3 157.2C204.6 149.8 185.5 155.2 177.2 160.7C168.9 166.2 128.5 221.5 128.5 221.5L100.8 261Z" fill="#231F20"/>
<path d="M131.6 271.4H131.2C110 270.6 103.2 264.2 101 262C100.8 261.8 100.7 261.7 100.5 261.5C100.3 261.4 100.2 261.2 100.2 261C100.2 260.8 100.2 260.6 100.3 260.5L127.9 221C129.6 218.7 168.5 165.5 176.8 160C184.6 154.9 204.3 148.7 216.7 156.5C228.4 163.9 253.4 233 254.4 235.9C254.5 236.2 254.4 236.6 254.1 236.7L235.2 248.6C234.9 248.8 234.5 248.7 234.3 248.5L193.9 201.1C187.2 213.1 179.8 224.7 171.9 236C155.2 259.5 141.6 271.4 131.6 271.4ZM101.7 260.8L101.9 261C104 263 110.5 269.3 131.2 270H131.6C154.6 270 192.7 200.4 193.1 199.7C193.2 199.5 193.4 199.4 193.6 199.3C193.8 199.3 194.1 199.4 194.2 199.5L234.9 247.3L252.8 236C250.4 229.5 226.6 164.6 215.8 157.8C210 154.1 192.7 151.3 177.4 161.3C169.3 166.6 129.3 221.3 128.9 221.9L101.7 260.8Z" fill="#231F20"/>
<path d="M121 212C121 211.2 131.3 197.6 133.8 196.4C136.3 195.1 138.7 193.6 141 192L137.2 183.3C137.2 183.3 134.2 184.5 134.8 181.8C135.4 179.1 130 175.3 130 175.3C130 175.3 122.9 181.6 122.7 188.9C122.6 194.7 106.9 204.1 106.9 204.1L121 212Z" fill="white"/>
<path d="M121 212.6C120.9 212.6 120.8 212.6 120.7 212.5L106.6 204.6C106.4 204.5 106.3 204.2 106.2 204C106.2 203.7 106.3 203.5 106.5 203.4C110.8 200.9 121.9 193.3 122 188.8C122.2 181.3 129.2 175 129.5 174.7C129.7 174.5 130.1 174.5 130.4 174.7C131 175.1 136.2 178.8 135.5 181.9C135.4 182.4 135.5 182.7 135.5 182.7C135.5 182.7 136.4 182.8 136.9 182.6C137.3 182.5 137.6 182.6 137.8 183L141.6 191.7C141.7 192 141.6 192.4 141.4 192.6C139.1 194.2 136.7 195.7 134.2 197C131.9 198.1 122.3 210.8 121.8 212.1C121.8 212.3 121.6 212.5 121.5 212.6C121.2 212.6 121.1 212.6 121 212.6ZM108.2 204L120.7 211C122.7 207.5 131.2 196.8 133.5 195.7C135.8 194.5 138 193.1 140.1 191.7L136.7 184.1C135.9 184.4 135.1 184.2 134.5 183.8C133.9 183.2 133.8 182.4 134 181.6C134.4 180.1 131.9 177.6 129.9 176.2C128.4 177.7 123.4 183 123.3 188.9C123.3 194.2 112 201.7 108.2 204Z" fill="#231F20"/>
<path d="M101 105.6C87.2 88.6 64.2 97.2 57.5 115.6C54.8 122.9 52.3 129.5 47.3 135.7C42.9 141.2 36 146 35.7 153.7C35.5 159.1 39.1 164 43.7 166.8C48.3 169.6 53.8 170.4 59.2 170.7C71.2 171.4 83.1 169.5 94.4 165.2C99 163.5 104.3 160.7 106.7 156.2C109.7 150.7 106.4 146.5 105.2 140.8C104.2 136.1 105.7 131.3 106.7 126.6C108.3 118.9 106 111.8 101 105.6Z" fill="white"/>
<path d="M63.8 171.5C62.2 171.5 60.7 171.5 59.1 171.4C54.4 171.2 48.4 170.5 43.3 167.4C38.2 164.3 34.8 158.9 34.9 153.7C35.1 147.7 39.1 143.4 43.1 139.3C44.4 137.9 45.6 136.7 46.7 135.3C51.5 129.4 54 123.1 56.8 115.4C60.5 105.3 69.2 97.7 78.9 96.1C87.5 94.7 95.5 97.9 101.5 105.2C107 112 108.9 119.2 107.3 126.8C107.1 127.6 106.9 128.4 106.8 129.1C105.9 132.9 105 136.9 105.8 140.6C106.1 142.1 106.5 143.5 107 145C108.3 148.8 109.5 152.3 107.2 156.6C105.2 160.4 100.9 163.5 94.5 166C84.7 169.6 74.3 171.5 63.8 171.5ZM82.9 97.1C81.7 97.1 80.4 97.2 79.2 97.4C69.9 99 61.6 106.2 58.1 115.8C55.3 123.6 52.7 130 47.8 136.1C46.7 137.5 45.4 138.9 44.1 140.2C40.4 144.1 36.5 148.2 36.3 153.7C36.1 158.4 39.2 163.3 44 166.2C48.8 169.1 54.7 169.7 59.2 170C71.1 170.6 82.9 168.8 94.1 164.6C100.2 162.3 104.2 159.4 106 155.9C108 152.1 106.9 149 105.7 145.4C105.2 143.9 104.7 142.5 104.4 141C103.5 136.9 104.5 132.8 105.4 128.9C105.6 128.1 105.8 127.4 105.9 126.6C107.4 119.4 105.6 112.5 100.4 106.1C95.7 100.2 89.6 97.1 82.9 97.1Z" fill="#231F20"/>
<path d="M49.5999 157.2C43.9999 164.4 45 198 58.3 215.5C71.6 233 78.6 255.7 108.8 267.4L132.7 218.6C132.7 218.6 112.9 201.1 112.1 195.6C111.3 190.1 115.1 181.6 112.4 174.2C100.8 143.2 55.1999 150 49.5999 157.2Z" fill="#292929"/>
<path d="M87.6 149.9L87.5 163.5C87.5 163.5 88.6 169.1 79.5 167C70.4 164.9 66.4 153.7 66.4 153.7L67.2 133.9C67.2 133.9 81.4 126.3 79.3 111.7C79.3 111.7 84.8 123.1 98.3 121.4C98.3 121.4 98.5 134.4 97.4 141.4C96.3 148.4 87.6 149.9 87.6 149.9Z" fill="white"/>
<path d="M83.1999 168.1C81.8999 168.1 80.5999 167.9 79.3999 167.6C70.0999 165.4 65.9999 154.4 65.7999 153.9C65.7999 153.8 65.7999 153.7 65.7999 153.6L66.5999 133.8C66.5999 133.6 66.6999 133.3 66.9999 133.2C67.0999 133.1 80.6999 125.6 78.7999 111.8C78.7999 111.5 78.9999 111.1 79.2999 111C79.5999 110.9 79.9999 111 80.0999 111.4C83.5999 118.1 90.8999 121.8 98.3999 120.7C98.5999 120.7 98.7999 120.7 98.8999 120.9C99.0999 121 99.0999 121.2 99.0999 121.4C99.0999 121.9 99.2999 134.5 98.1999 141.5C97.1999 147.9 90.2999 150 88.1999 150.5L88.0999 163.5C88.2999 164.7 87.8999 166 86.9999 166.9C86.0999 167.8 84.6999 168.2 83.1999 168.1ZM67.1999 153.5C67.6999 154.7 71.6999 164.3 79.7999 166.2C82.8999 167 85.1999 166.8 86.1999 165.8C86.7999 165.2 86.9999 164.4 86.8999 163.5L86.9999 149.8C86.9999 149.5 87.1999 149.2 87.5999 149.1C87.6999 149.1 95.9999 147.6 96.9999 141.2C97.8999 135.3 97.8999 125 97.7999 122.1C90.9999 122.8 84.3999 119.8 80.3999 114.3C80.4999 126.2 70.0999 133 67.9999 134.2L67.1999 153.5Z" fill="#231F20"/>
<path d="M71.6 133C70.6 129.8 67.6 127.8 64.3 128.1C60.4 128.7 60.4 133.2 61.6 136C62.4 137.8 63.8 139.1 65.6 139.8C67.4 140.5 69.4 140.4 71.1 139.7" fill="white"/>
<path d="M68.1999 141.1C65.0999 141.1 62.1999 139.2 60.9999 136.3C60.1999 134.5 59.6999 131.7 60.8999 129.6C61.5999 128.4 62.7999 127.6 64.1999 127.4C67.7999 127 71.1999 129.3 72.2999 132.8C72.3999 133.2 72.1999 133.6 71.7999 133.6C71.3999 133.7 70.9999 133.5 70.9999 133.1C70.0999 130.3 67.3999 128.5 64.4999 128.7C63.4999 128.8 62.6999 129.4 62.1999 130.2C61.3999 131.7 61.6999 134 62.3999 135.7C63.7999 139 67.5999 140.5 70.8999 139.1H70.9999C71.3999 138.9 71.7999 139.1 71.8999 139.5C72.0999 139.9 71.8999 140.3 71.4999 140.4C70.3999 140.9 69.2999 141.1 68.1999 141.1Z" fill="#231F20"/>
<path d="M89.8 128.3C89.8 128.3 94.8 135.2 93.7 136.5C92.6 137.8 89.4 137.1 89.4 137.1" fill="white"/>
<path d="M91.3 138C90.6 138 90 137.9 89.3 137.8C88.9 137.7 88.7 137.3 88.9 136.9C89 136.6 89.3 136.4 89.6 136.4C90.5 136.6 92.6 136.8 93.2 136C93.4 135.4 91.6 131.9 89.2 128.7C89 128.4 89 128 89.3 127.7C89.6 127.5 90 127.5 90.3 127.8C92.7 131.2 95.4 135.4 94.2 136.8C93.4 137.7 92.4 138.1 91.3 138Z" fill="#231F20"/>
<path d="M85.8819 127.305C86.4889 127.287 86.9469 126.109 86.9049 124.673C86.8629 123.238 86.3369 122.089 85.7289 122.107C85.1219 122.124 84.6639 123.302 84.7059 124.738C84.7479 126.173 85.2749 127.322 85.8819 127.305Z" fill="#231F20"/>
<path d="M95.2819 128.405C95.8889 128.387 96.3479 127.209 96.3049 125.774C96.2629 124.338 95.7369 123.189 95.1299 123.207C94.5219 123.225 94.0639 124.403 94.1059 125.838C94.1479 127.273 94.6749 128.423 95.2819 128.405Z" fill="#231F20"/>
<path d="M87.5999 149.9C87.5999 149.9 82.3999 150.8 76.2999 146.8C76.2999 146.8 78.5999 156.3 87.4999 157.2L87.5999 149.9Z" fill="#231F20"/>
<path d="M87.6 157.9C78.2 157 75.7 147 75.7 146.9C75.6 146.6 75.7 146.3 76 146.2C76.2 146 76.5 146 76.8 146.2C82.6 150 87.5 149.2 87.6 149.2C87.8 149.2 88 149.2 88.2 149.4C88.4 149.5 88.4 149.7 88.4 149.9V157.2C88.4 157.4 88.3 157.6 88.2 157.7C88 157.8 87.8 157.9 87.6 157.9ZM77.6 148.3C78.6 150.9 81.3 155.5 86.9 156.4V150.6C83.6 150.7 80.4 149.9 77.6 148.3Z" fill="#231F20"/>
<path d="M82 133C82 133 82 146.8 94.1 142.3L82 133Z" fill="white"/>
<path d="M89.6999 144C88.1999 144 86.6999 143.6 85.3999 142.7C81.2999 139.9 81.2999 133.3 81.2999 133.1C81.2999 132.7 81.5999 132.4 81.9999 132.4C82.3999 132.4 82.6999 132.7 82.6999 133.1C82.6999 133.2 82.7999 139.2 86.1999 141.6C88.0999 142.9 90.5999 143 93.7999 141.8C94.1999 141.6 94.5999 141.8 94.6999 142.1C94.8999 142.5 94.6999 142.9 94.3999 143H94.2999C92.7999 143.6 91.2999 144 89.6999 144Z" fill="#231F20"/>
<path d="M165.2 200C164.6 199.8 148.8 195.8 148.8 195.8C148.8 195.8 175.2 154 175.9 153.8C176.6 153.6 198.6 149.2 198.6 149.2L165.2 200Z" fill="white"/>
<path d="M165.2 200.7H165C164.5 200.5 154.9 198.1 148.6 196.6C148.2 196.5 148 196.1 148.1 195.8C148.1 195.7 148.2 195.6 148.2 195.6C174.8 153.6 175.3 153.4 175.6 153.3C176.2 153.1 194.7 149.4 198.4 148.7C198.8 148.6 199.1 148.9 199.2 149.2C199.2 149.4 199.2 149.6 199.1 149.7L165.8 200.5C165.7 200.6 165.5 200.7 165.2 200.7ZM149.9 195.4C153.1 196.2 162.6 198.6 164.9 199.2L197 150.2C188.8 151.8 177.7 154.1 176.2 154.4C174.6 156.4 159.9 179.5 149.9 195.4Z" fill="#231F20"/>
<path d="M148.8 195.8L129.9 185.6L155.4 148.6L175.9 153.8L148.8 195.8Z" fill="white"/>
<path d="M148.8 196.5C148.7 196.5 148.6 196.5 148.5 196.4L129.6 186.2C129.4 186.1 129.3 185.9 129.2 185.7C129.2 185.5 129.2 185.3 129.3 185.2L154.8 148.2C155 148 155.3 147.8 155.6 147.9L176 153.1C176.2 153.2 176.4 153.3 176.5 153.5C176.6 153.7 176.6 153.9 176.4 154.1L149.3 196.1C149.2 196.4 149 196.5 148.8 196.5ZM131 185.3L148.6 194.9L174.8 154.2L155.8 149.4L131 185.3Z" fill="#231F20"/>
<path d="M71.6 206C71.6 206 90.2 236.8 105 242.4C119.8 248 161.6 205 161.6 205C161.6 205 166.7 207.4 172 200.4C175.2 196.1 177.8 191.4 179.6 186.3C179.6 186.3 182.3 180.8 181.3 177.3C180.4 174.4 177.6 180.2 177.6 180.2C177.6 180.2 172.9 187.5 170.1 186.8C167.3 186.1 169.7 178.7 168.9 176.5C168.1 174.3 163.9 182.1 163 185.4C162.1 188.7 156.9 194.8 154.7 196.8C152.5 198.8 119.3 221.3 116.4 221.1C113.5 220.9 93.4 196.3 93.4 196.3L71.6 206Z" fill="white"/>
<path d="M107.9 243.5C106.8 243.5 105.8 243.3 104.7 243C90 237.4 71.8 207.6 71 206.4C70.9 206.2 70.9 206 70.9 205.8C71 205.6 71.1 205.5 71.3 205.4L93.1 195.8C93.4 195.7 93.7 195.8 93.9 196C103.6 207.8 114.6 220.2 116.4 220.5C119.2 220.5 151.3 198.9 154.2 196.3C156.4 194.3 161.4 188.3 162.3 185.3C163 183 166.3 175.6 168.4 175.5C168.9 175.5 169.4 175.8 169.5 176.3C169.8 177.7 169.8 179.2 169.6 180.7C169.4 182.9 169.1 185.9 170.3 186.2C171.9 186.6 175.2 182.8 177 179.9C177.7 178.4 179.2 175.8 180.6 175.9C181 175.9 181.6 176.2 181.9 177.2C183 180.8 180.3 186.4 180.2 186.7C178.4 191.8 175.8 196.6 172.5 200.9C167.8 207.1 163.2 206.3 161.7 205.9C157.8 209.8 124.1 243.5 107.9 243.5ZM72.6 206.3C75.4 210.8 92.1 236.7 105.2 241.7C111 243.9 122.4 238.2 138.3 225.2C150.4 215.3 160.9 204.6 161 204.5C161.2 204.3 161.5 204.2 161.8 204.4C162 204.5 166.5 206.4 171.4 200C174.6 195.8 177.1 191.1 178.9 186.1C179 186 181.5 180.7 180.6 177.5C180.6 177.4 180.5 177.2 180.4 177.1C179.5 178.1 178.7 179.2 178.2 180.4C177.3 181.8 173 188.1 169.9 187.4C167.6 186.8 167.9 183.4 168.1 180.4C168.3 179.2 168.3 178 168.2 176.9C167.1 177.8 164.4 182.7 163.5 185.6C162.5 189.1 157.3 195.2 155 197.3C153.2 198.9 120 221.8 116.3 221.8H116.2C113.3 221.6 98.2 203.4 93.1 197.2L72.6 206.3Z" fill="#231F20"/>
<path d="M93.4 197.1C93.1 197.1 92.9 196.9 92.8 196.7L81.9 174.2C81.7 173.9 81.9 173.4 82.2 173.3C82.5 173.1 83 173.3 83.1 173.6L94 196.1C94.2 196.4 94 196.9 93.7 197C93.6 197.1 93.5 197.1 93.4 197.1Z" fill="#231F20"/>
<path d="M71.6 206.7C71.3 206.7 71.0999 206.6 70.9999 206.3C70.8999 206 57.5 178.4 54.8 175C54.5 174.7 54.5 174.3 54.8 174C55.1 173.7 55.5 173.7 55.8 174L55.8999 174.1C58.6999 177.6 71.7 204.5 72.3 205.7C72.5 206 72.2999 206.5 71.9999 206.6C71.7999 206.7 71.7 206.7 71.6 206.7Z" fill="#231F20"/>
<path d="M134.7 270.8C134.3 270.8 134 270.5 134 270.1C134 269.8 134.2 269.5 134.5 269.4C150.8 264.1 175.3 228.7 175.5 228.3C175.7 228 176.2 228 176.5 228.2C176.8 228.4 176.8 228.8 176.7 229.1C175.7 230.6 151.7 265.2 135 270.7C134.9 270.7 134.8 270.7 134.7 270.8Z" fill="white"/>
<path d="M129.9 175.3C131.6 174 133.5 173 135.4 172.1C140 170.1 146.1 170.6 144.5 172.6C142.9 174.6 132.6 178.9 132.6 178.9C132.6 178.9 133.5 183.6 128.1 185.7" fill="white"/>
<path d="M128.3 186.3C127.9 186.3 127.6 185.9 127.7 185.5C127.7 185.3 127.9 185 128.1 184.9C132.9 183.1 132.2 179 132.2 178.9C132.1 178.6 132.3 178.3 132.6 178.1C136.7 176.4 143.2 173.4 144.2 172C144.2 172 144.3 171.9 144.3 171.8C143.9 171.2 139.7 170.9 135.9 172.6C134 173.4 132.2 174.4 130.6 175.6C130.3 175.9 129.9 175.9 129.6 175.6C129.3 175.3 129.3 174.9 129.6 174.6C131.4 173.3 133.3 172.1 135.4 171.3C139.2 169.6 144.3 169.5 145.5 171C145.9 171.6 145.9 172.3 145.4 172.8C144 174.7 136 178.2 133.7 179.1C133.8 180.5 133.4 184.3 128.7 186.1C128.4 186.3 128.3 186.3 128.3 186.3Z" fill="#231F20"/>
</svg>
