<svg width="485" height="338" viewBox="0 0 485 338" fill="none" xmlns="http://www.w3.org/2000/svg">
<path d="M482.7 2H1.40002V335.9H482.7V2Z" fill="white"/>
<path d="M482.6 1.99998V335.9H1.4V1.99998H482.6ZM482.6 0.599976H1.4C0.6 0.599976 0 1.19998 0 1.99998V335.9C0 336.7 0.6 337.3 1.4 337.3H482.6C483.4 337.3 484 336.7 484 335.9V1.99998C484 1.19998 483.4 0.599976 482.6 0.599976Z" fill="#231F20"/>
<path d="M482.6 131.5L481.4 132.2H482.6V165.4H437.8L452.7 106.3L459.8 105.2L453.5 103.2L468.5 43.4L479.5 87.1L474.1 90.9H480.5L482.6 99.4V131.5Z" fill="#292929"/>
<path d="M146.2 207.2H50.8L73.9001 115.4L85 113.8L75.2 110.6L98.5 17.7L115.6 85.6L107.1 91.5H117.1L131.6 149L118.4 155.6H133.2L146.2 207.2Z" fill="#292929"/>
<path d="M417.5 206.3H335.4L355.3 127.4L364.8 126L356.4 123.2L376.5 43.4L391.1 101.8L383.9 106.8H392.4L404.9 156.3L393.5 162H406.3L417.5 206.3Z" fill="#292929"/>
<path d="M123.8 249.4H187.7L172.2 187.9L164.9 186.8L171.4 184.7L155.8 122.5L144.3 168L150 171.9H143.3L133.6 210.4L142.5 214.9H132.5L123.8 249.4Z" fill="#292929"/>
<path d="M73.4 238.4H1.40002V148.8L1.70002 147.3L12.6 145.7L2.90002 142.6L26.1 50.4L43.1 117.8L34.6 123.6H44.5L58.9 180.7L45.8 187.2H60.5L73.4 238.4Z" fill="#292929"/>
<path d="M482.6 335.9V149.9C482.6 149.9 430.5 159.7 393.5 175.4C308.3 211.6 301.1 242.3 260.7 243.3C220.3 244.3 170.7 211.6 118 194.2C65.3 176.8 1.40002 169 1.40002 169V336L482.6 335.9Z" fill="white"/>
<path d="M482.6 149.9V335.9H1.4V169C1.4 169 65.3 176.8 118.1 194.2C170.1 211.3 219 243.3 259 243.3H260.8C301.2 242.3 308.4 211.6 393.6 175.4C430.5 159.7 482.6 149.9 482.6 149.9ZM482.6 148.5H482.3C481.8 148.6 429.6 158.6 392.9 174.1C351.7 191.6 328.3 208.1 311.3 220.1C293.1 232.9 281.1 241.4 260.7 241.9H258.9C233.9 241.9 204.9 229 174.2 215.4C156.2 207.4 137.6 199.1 118.4 192.8C66.2 175.7 2.2 167.7 1.5 167.6H1.4C1.1 167.6 0.7 167.7 0.5 168C0.1 168.2 0 168.6 0 169V336C0 336.8 0.6 337.4 1.4 337.4H482.4C482.5 337.4 482.6 337.4 482.7 337.4C483.4 337.4 484 336.8 484.1 336.1V336V150C484.1 149.6 483.9 149.2 483.6 148.9C483.3 148.7 483 148.6 482.7 148.6L482.6 148.5Z" fill="#231F20"/>
<path d="M237.1 282.4C237 282.4 236.9 282.4 236.8 282.3C214.2 269.8 178.5 259.1 153.3 265C152.9 265.1 152.6 264.8 152.5 264.4C152.4 264.1 152.6 263.7 153 263.6C178.6 257.6 214.8 268.4 237.5 281C237.8 281.2 238 281.6 237.8 281.9C237.6 282.2 237.4 282.4 237.1 282.4Z" fill="#231F20"/>
<path d="M219 168.7C218.8 168.7 218.5 168.6 218.4 168.5C218.2 168.4 217.6 168 215.8 166.8C209.4 162.7 192.5 151.7 186.2 149.3C184.8 148.8 183.4 148.4 182 148.1C178.3 147.3 174.5 146.5 166.3 139.8C165.7 139.3 165.6 138.4 166.1 137.8C166.6 137.2 167.5 137.1 168.1 137.6C175.8 143.9 179.1 144.6 182.6 145.3C184.2 145.6 185.8 146 187.3 146.6C193.8 149.2 210.9 160.2 217.4 164.4C218.8 165.3 219.6 165.9 219.8 166C220.5 166.4 220.7 167.2 220.3 167.9C220 168.4 219.5 168.7 219 168.7Z" fill="#231F20"/>
<path d="M205 160.5C204.8 160.5 186.7 159.7 173.9 157.1C173.1 157 172.6 156.3 172.7 155.5C172.8 154.7 173.5 154.2 174.3 154.3H174.4C187 156.9 204.8 157.6 205 157.6C205.8 157.6 206.4 158.3 206.4 159C206.4 159.7 205.7 160.5 205 160.5Z" fill="#231F20"/>
<path d="M188.7 150.3C188.3 150.3 187.8 150.1 187.6 149.7L177.2 135.4C176.7 134.8 176.9 133.9 177.5 133.4C178.1 132.9 179 133.1 179.5 133.7L189.9 148C190.4 148.6 190.2 149.5 189.6 149.9C189.2 150.2 189 150.3 188.7 150.3Z" fill="#231F20"/>
<path d="M201.8 157.9C201.3 157.9 200.8 157.6 200.6 157.1L193.9 144.2C193.5 143.5 193.7 142.7 194.4 142.3C195.1 141.9 195.9 142.1 196.3 142.8L196.4 142.9L203.1 155.8C203.5 156.5 203.2 157.3 202.5 157.7C202.3 157.9 202 157.9 201.8 157.9Z" fill="#231F20"/>
<path d="M167.6 147.7C166.7 147.7 166.5 147.6 166.3 147.4C165.7 147 165.5 146.1 165.9 145.5C166.2 145 166.8 144.8 167.4 144.9C168.2 144.9 172.5 144.6 176.2 144.2C177 144.1 177.7 144.7 177.7 145.4C177.7 146.1 177.2 146.9 176.5 146.9C171.2 147.5 168.8 147.7 167.6 147.7Z" fill="#231F20"/>
<path d="M277.5 168.5C277.2 168.5 276.9 168.4 276.6 168.2C276 167.7 275.9 166.9 276.4 166.3C276.4 166.3 276.4 166.3 276.5 166.2C276.6 166 277.1 165.5 278.7 163.9C284 158.5 298 144 301.6 138.3C302.4 137.1 303 135.7 303.6 134.4C305.1 130.9 306.6 127.3 314.8 120.6C315.4 120.1 316.3 120.2 316.8 120.8C317.3 121.4 317.2 122.2 316.6 122.7C309 129 307.6 132.1 306.2 135.5C305.6 137 304.9 138.5 304 139.8C300.2 145.7 286 160.3 280.7 165.8C279.6 167 278.8 167.7 278.7 167.9C278.4 168.3 278 168.5 277.5 168.5Z" fill="#231F20"/>
<path d="M288.3 156.3C288.2 156.3 288.1 156.3 288 156.3C287.3 156.1 286.8 155.4 287 154.6C287 154.4 291.3 136.8 296.3 124.8C296.6 124.1 297.4 123.7 298.1 124C298.8 124.3 299.2 125.1 298.9 125.8C293.9 137.7 289.7 155 289.7 155.2C289.5 155.9 288.9 156.3 288.3 156.3Z" fill="#231F20"/>
<path d="M301.5 142.3C300.7 142.3 300.1 141.7 300.1 140.9C300.1 140.4 300.4 139.9 300.9 139.6L316.9 132.2C317.6 131.9 318.4 132.2 318.8 132.9C319.1 133.6 318.8 134.4 318.1 134.8L302.1 142.2C301.9 142.3 301.7 142.3 301.5 142.3Z" fill="#231F20"/>
<path d="M291.4 153.7C290.6 153.7 290 153 290 152.3C290 151.7 290.4 151.2 291 151L304.9 146.9C305.6 146.7 306.4 147.1 306.6 147.8C306.8 148.5 306.4 149.3 305.6 149.5L291.7 153.6C291.7 153.7 291.5 153.7 291.4 153.7Z" fill="#231F20"/>
<path d="M307.1 130.9C306.2 130.8 305.7 130.2 305.7 129.4C306.6 120 306.8 119.8 307.2 119.3C307.7 118.7 308.6 118.7 309.2 119.3C309.6 119.7 309.7 120.3 309.5 120.9C309.3 121.7 308.9 125.9 308.5 129.7C308.4 130.3 307.8 130.9 307.1 130.9Z" fill="#231F20"/>
<path d="M288.2 189.2C288.4 187.5 288.5 185.8 288.5 184.1C288.5 160.6 269.5 141.6 246 141.6C222.5 141.6 203.5 160.6 203.5 184.1C203.5 185.8 203.6 187.5 203.8 189.2C180.6 212.5 180.7 250.2 203.9 273.4C227.1 296.6 264.9 296.5 288.1 273.3C311.4 250 311.4 212.4 288.2 189.2Z" fill="white"/>
<path d="M246.1 291.4C212.9 291.4 185.9 264.5 185.9 231.2C185.9 215.4 192.1 200.2 203.2 188.9C203 187.3 202.9 185.7 202.9 184C203 160.2 222.4 140.9 246.2 141C270 141.1 289.3 160.5 289.2 184.3C289.2 185.8 289.1 187.4 288.9 188.9C312.2 212.6 312 250.7 288.3 274C277.1 285.2 261.9 291.4 246.1 291.4ZM246.1 142.2C223.1 142.2 204.4 160.9 204.3 184C204.3 185.7 204.4 187.4 204.6 189C204.6 189.2 204.5 189.4 204.4 189.6C181.5 212.6 181.5 249.8 204.5 272.8C227.5 295.7 264.7 295.7 287.7 272.7C310.6 249.7 310.6 212.6 287.7 189.7C287.5 189.5 287.5 189.3 287.5 189.1C290.3 166.2 274 145.4 251.1 142.6C249.5 142.3 247.8 142.2 246.1 142.2Z" fill="#231F20"/>
<path d="M269.177 134.156C271.247 121.399 262.584 109.38 249.828 107.309C237.071 105.239 225.051 113.902 222.981 126.659C220.911 139.415 229.574 151.435 242.33 153.506C255.087 155.576 267.107 146.913 269.177 134.156Z" fill="white"/>
<path d="M246.1 154.5C232.8 154.5 222 143.7 222 130.4C222 117.1 232.8 106.3 246.1 106.3C259.4 106.3 270.2 117.1 270.2 130.4C270.2 143.7 259.4 154.5 246.1 154.5ZM246.1 107.7C233.6 107.7 223.4 117.9 223.4 130.4C223.4 142.9 233.6 153.1 246.1 153.1C258.6 153.1 268.8 142.9 268.8 130.4C268.8 117.9 258.6 107.7 246.1 107.7Z" fill="#231F20"/>
<path d="M288.2 189.2C288.2 189.2 284.1 200.3 264.4 204.3Z" fill="white"/>
<path d="M264.4 204.9C264 204.9 263.7 204.6 263.7 204.2C263.7 203.9 263.9 203.6 264.3 203.5C283.4 199.7 287.6 189 287.6 188.9C287.8 188.5 288.2 188.4 288.5 188.6C288.8 188.7 289 189.1 288.9 189.4C288.7 189.9 284.4 201 264.6 204.9H264.4Z" fill="#231F20"/>
<path d="M249.357 165.92C249.649 164.121 248.427 162.426 246.628 162.134C244.829 161.842 243.134 163.064 242.842 164.863C242.55 166.662 243.772 168.357 245.571 168.649C247.37 168.941 249.065 167.719 249.357 165.92Z" fill="#231F20"/>
<path d="M246.1 184.3C247.923 184.3 249.4 182.823 249.4 181C249.4 179.177 247.923 177.7 246.1 177.7C244.278 177.7 242.8 179.177 242.8 181C242.8 182.823 244.278 184.3 246.1 184.3Z" fill="#231F20"/>
<path d="M246.1 199.9C247.923 199.9 249.4 198.423 249.4 196.6C249.4 194.777 247.923 193.3 246.1 193.3C244.278 193.3 242.8 194.777 242.8 196.6C242.8 198.423 244.278 199.9 246.1 199.9Z" fill="#231F20"/>
<path d="M222.8 112.4L245.9 101.4C246.9 100.9 248.1 101.3 248.5 102.3L249.8 105C250.3 106 249.9 107.2 248.9 107.6L225.8 118.6C224.8 119.1 223.6 118.7 223.2 117.7L221.9 115C221.4 114 221.8 112.8 222.8 112.4Z" fill="#231F20"/>
<path d="M217.7 86.5L229 81.1C230.8 80.3 232.9 81 233.7 82.8L243.2 102.7L225.5 111.1L216 91.2C215.2 89.4 215.9 87.3 217.7 86.5Z" fill="#231F20"/>
<path d="M243.2 137.3C243.2 137.3 237.1 134.9 238.3 129.5C239.5 124.1 245.6 122.9 245.6 122.9L261.4 129.8L243.2 137.3Z" fill="#292929"/>
<path d="M231.6 125.3C232.373 125.3 233 124.673 233 123.9C233 123.127 232.373 122.5 231.6 122.5C230.827 122.5 230.2 123.127 230.2 123.9C230.2 124.673 230.827 125.3 231.6 125.3Z" fill="#231F20"/>
<path d="M256.1 120.5C256.873 120.5 257.5 119.873 257.5 119.1C257.5 118.327 256.873 117.7 256.1 117.7C255.327 117.7 254.7 118.327 254.7 119.1C254.7 119.873 255.327 120.5 256.1 120.5Z" fill="#231F20"/>
<path d="M223.5 112.8C223.2 112.8 223 112.6 222.9 112.4C222.7 112.1 222.9 111.6 223.2 111.5L242.9 102.1C243.2 101.9 243.7 102.1 243.8 102.4C244 102.7 243.8 103.2 243.5 103.3L223.8 112.7C223.7 112.7 223.6 112.7 223.5 112.8Z" fill="white"/>
<path d="M399.4 257.4L412.9 196.8L420.1 195.8L413.7 193.7L428.9 133.4L440 177.4L434.5 181.2H441L450.4 218.6L441.9 222.9H451.5L454.4 234.4C454.3 234.4 411.7 251.3 399.4 257.4Z" fill="#292929"/>
<path d="M177.2 295.5C226.1 266.3 290.4 255.2 340.8 287.3Z" fill="white"/>
<path d="M177.2 296.2C177 296.2 176.7 296.1 176.6 295.9C176.4 295.6 176.5 295.1 176.8 294.9C221 268.4 287.4 252.4 341.1 286.7C341.4 286.9 341.5 287.3 341.3 287.7C341.1 288 340.7 288.1 340.3 287.9C287.1 253.9 221.3 269.9 177.5 296.1C177.4 296.2 177.3 296.2 177.2 296.2Z" fill="#231F20"/>
<path d="M385.9 268.2C385.9 268.2 414.2 228.9 468.9 235Z" fill="white"/>
<path d="M385.9 268.9C385.8 268.9 385.6 268.9 385.5 268.8C385.2 268.6 385.1 268.1 385.3 267.8C385.6 267.4 414.5 228.2 468.9 234.3C469.3 234.3 469.6 234.7 469.5 235.1C469.4 235.5 469.1 235.8 468.7 235.7C415.1 229.7 386.7 268.2 386.4 268.6C386.4 268.7 386.2 268.9 385.9 268.9Z" fill="#231F20"/>
<path d="M270.6 24.4C267 24.4 267 30 270.6 30C274.2 30 274.2 24.4 270.6 24.4Z" fill="#D1D3D4"/>
<path d="M168.6 69.3C162.9 69.3 162.9 78.1 168.6 78.1C174.3 78.1 174.3 69.3 168.6 69.3Z" fill="#D1D3D4"/>
<path d="M50.8 81.2C47.2 81.2 47.2 86.8 50.8 86.8C54.4 86.8 54.5 81.2 50.8 81.2Z" fill="#D1D3D4"/>
<path d="M219 46.2C213.6 46.2 213.6 54.6 219 54.6C224.4 54.6 224.4 46.2 219 46.2Z" fill="#D1D3D4"/>
<path d="M289.9 62.2C288.8 62.2 287.7 62.6 286.9 63.5C286.6 63.9 286.3 64.3 286.1 64.8C285.4 66.6 286 68.6 287.4 69.8C287.9 70.1 288.4 70.4 288.9 70.5C289.2 70.6 289.5 70.6 289.9 70.6C295.3 70.6 295.3 62.2 289.9 62.2Z" fill="#D1D3D4"/>
<path d="M329.9 95.3C328.7 95.3 327.6 95.7 326.9 96.6C326.6 97 326.3 97.5 326.1 97.9C325.4 99.7 326 101.7 327.4 102.9C327.9 103.2 328.4 103.5 328.9 103.6C329.2 103.7 329.5 103.7 329.9 103.7C335.3 103.7 335.4 95.3 329.9 95.3Z" fill="#D1D3D4"/>
<path d="M430.1 89.7C430 89.3 429.7 88.9 429.4 88.6C429.1 88.3 428.7 88 428.3 87.9C427.9 87.7 427.4 87.6 426.9 87.6L426 87.7C425.4 87.9 424.9 88.2 424.5 88.6L424 89.3C423.7 89.8 423.5 90.4 423.5 91.1V92.3C423.5 92.8 423.6 93.2 423.8 93.7C424.1 94.5 424.8 95.2 425.7 95.6C426.1 95.8 426.6 95.9 427.1 95.9L428 95.8C428.6 95.6 429.1 95.3 429.5 94.9L430 94.2C430.3 93.7 430.5 93.1 430.5 92.4V91C430.4 90.5 430.3 90.1 430.1 89.7Z" fill="#D1D3D4"/>
<path d="M402.6 41.4C402.5 41 402.2 40.6 401.9 40.3C401.6 40 401.2 39.7 400.8 39.6C400.4 39.4 399.9 39.3 399.4 39.3L398.5 39.4C397.9 39.6 397.4 39.9 397 40.3L396.5 41C396.2 41.5 396 42.1 396 42.8V44C396 44.5 396.1 44.9 396.3 45.3C396.6 46.2 397.3 46.8 398.2 47.1C398.6 47.3 399.1 47.4 399.6 47.4L400.5 47.3C401.1 47.1 401.6 46.8 402 46.4C402.2 46.2 402.4 45.9 402.5 45.7C402.8 45.2 403 44.6 403 43.9V42.7C403 42.3 402.9 41.8 402.6 41.4Z" fill="#D1D3D4"/>
<path d="M450.3 21.3C445.8 21.3 445.8 28.3 450.3 28.3C454.8 28.3 454.8 21.3 450.3 21.3Z" fill="#D1D3D4"/>
<path d="M140.5 25.3C135.1 25.3 135.1 33.7 140.5 33.7C145.9 33.7 145.9 25.3 140.5 25.3Z" fill="#D1D3D4"/>
<path d="M17.5 17.1C12.1 17.1 12.1 25.5 17.5 25.5C22.9 25.5 22.9 17.1 17.5 17.1Z" fill="#D1D3D4"/>
<path d="M68.5 39.2C63.1 39.2 63.1 47.6 68.5 47.6C73.9 47.6 73.9 39.2 68.5 39.2Z" fill="#D1D3D4"/>
<path d="M349.8 30.9C346.2 30.9 346.2 36.5 349.8 36.5C353.4 36.5 353.4 30.9 349.8 30.9Z" fill="#D1D3D4"/>
<path d="M100.3 219.3C94.9 219.3 94.9 227.7 100.3 227.7C105.7 227.7 105.7 219.3 100.3 219.3Z" fill="#D1D3D4"/>
<path d="M118 288.6C113.5 288.6 113.5 295.6 118 295.6C122.5 295.6 122.5 288.6 118 288.6Z" fill="#D1D3D4"/>
<path d="M349.8 236.5C345.3 236.5 345.3 243.5 349.8 243.5C354.3 243.5 354.3 236.5 349.8 236.5Z" fill="#D1D3D4"/>
<path d="M76.5 257.4C76.3 257.4 76.2 257.3 76.1 257.2C66.8 249.8 55.4 245.4 43.5 244.7C43.1 244.7 42.8 244.3 42.8 244C42.8 243.6 43.2 243.3 43.5 243.3C55.7 244 67.4 248.5 77 256.1C77.3 256.3 77.4 256.8 77.1 257.1C77 257.4 76.7 257.5 76.5 257.4Z" fill="#D1D3D4"/>
<path d="M381.8 312.9C381.4 312.9 381.1 312.6 381.1 312.2C381.1 312 381.2 311.8 381.3 311.7C390.3 304 401.9 300.1 413.7 300.8C414.1 300.8 414.4 301.2 414.4 301.5C414.4 301.8 414 302.2 413.7 302.2C402.3 301.5 391 305.3 382.3 312.7C382.1 312.9 381.9 312.9 381.8 312.9Z" fill="#D1D3D4"/>
<path d="M73.5 315.4C73.1 315.4 72.8 315.1 72.8 314.7C72.8 314.4 73 314.1 73.3 314C90.7 307.8 109.7 307.3 127.4 312.6C127.8 312.7 128 313.1 127.9 313.4C127.8 313.7 127.4 314 127.1 313.9C127.1 313.9 127.1 313.9 127 313.9C109.6 308.7 90.9 309.2 73.8 315.3C73.6 315.4 73.5 315.4 73.5 315.4Z" fill="#D1D3D4"/>
</svg>
